name GIL01_xslow2.mot
datacolumns 153
datarows 4
range 0.30833328 0.33333328
endheader

                time	           pelvis_tx	           pelvis_ty	           pelvis_tz	         pelvis_tilt	         pelvis_list	     pelvis_rotation	       hip_flexion_r	     hip_adduction_r	      hip_rotation_r	        knee_angle_r	       ankle_angle_r	    subtalar_angle_r	         mtp_angle_r	       hip_flexion_l	     hip_adduction_l	      hip_rotation_l	        knee_angle_l	       ankle_angle_l	    subtalar_angle_l	         mtp_angle_l	    lumbar_extension	      lumbar_bending	     lumbar_rotation	     ground_force_vx	     ground_force_vy	     ground_force_vz	     ground_force_px	     ground_force_py	     ground_force_pz	     ground_force_vx	     ground_force_vy	     ground_force_vz	     ground_force_px	     ground_force_py	     ground_force_pz	     ground_torque_x	     ground_torque_y	     ground_torque_z	     ground_torque_x	     ground_torque_y	     ground_torque_z	    ground_marker_px	    ground_marker_py	    ground_marker_pz	    ground_marker_px	    ground_marker_py	    ground_marker_pz	    ground_marker_px	    ground_marker_py	    ground_marker_pz	    ground_marker_px	    ground_marker_py	    ground_marker_pz	    ground_marker_px	    ground_marker_py	    ground_marker_pz	    ground_marker_px	    ground_marker_py	    ground_marker_pz	    ground_marker_px	    ground_marker_py	    ground_marker_pz	    ground_marker_px	    ground_marker_py	    ground_marker_pz	    ground_marker_px	    ground_marker_py	    ground_marker_pz	    ground_marker_px	    ground_marker_py	    ground_marker_pz	    ground_marker_px	    ground_marker_py	    ground_marker_pz	    ground_marker_px	    ground_marker_py	    ground_marker_pz	    ground_marker_px	    ground_marker_py	    ground_marker_pz	    ground_marker_px	    ground_marker_py	    ground_marker_pz	    ground_marker_px	    ground_marker_py	    ground_marker_pz	    ground_marker_px	    ground_marker_py	    ground_marker_pz	    ground_marker_px	    ground_marker_py	    ground_marker_pz	    ground_marker_px	    ground_marker_py	    ground_marker_pz	    ground_marker_px	    ground_marker_py	    ground_marker_pz	    ground_marker_px	    ground_marker_py	    ground_marker_pz	    ground_marker_px	    ground_marker_py	    ground_marker_pz	    ground_marker_px	    ground_marker_py	    ground_marker_pz	    ground_marker_px	    ground_marker_py	    ground_marker_pz	    ground_marker_px	    ground_marker_py	    ground_marker_pz	    ground_marker_px	    ground_marker_py	    ground_marker_pz	    ground_marker_px	    ground_marker_py	    ground_marker_pz	    ground_marker_px	    ground_marker_py	    ground_marker_pz	    ground_marker_px	    ground_marker_py	    ground_marker_pz	    ground_marker_px	    ground_marker_py	    ground_marker_pz	    ground_marker_px	    ground_marker_py	    ground_marker_pz	    ground_marker_px	    ground_marker_py	    ground_marker_pz	    ground_marker_px	    ground_marker_py	    ground_marker_pz	    ground_marker_px	    ground_marker_py	    ground_marker_pz	    ground_marker_px	    ground_marker_py	    ground_marker_pz	    ground_marker_px	    ground_marker_py	    ground_marker_pz	    ground_marker_px	    ground_marker_py	    ground_marker_pz	    ground_marker_px	    ground_marker_py	    ground_marker_pz	
          0.30833328	          0.79011124	          0.80626953	         -0.26002842	         -1.89494133	          6.63614035	         -3.77220273	         -3.91249371	        -13.25647545	        -12.26619720	        -36.55748367	        -30.91282082	          0.00000000	          0.00000000	          2.52237415	          7.57145834	         -1.57224870	          8.34959888	         -7.78249645	          0.00000000	          0.00000000	         -4.70957184	         -2.14801669	         -2.15853620	          0.00000000	          0.00000000	          0.00000000	          1.14337354	          0.00000000	         -0.16794150	        -25.39249080	        393.19510475	         13.59942270	          0.77867346	          0.00000000	         -0.30826880	          0.00000000	          0.00000000	          0.00000000	          0.00000000	          0.62187695	          0.00000000	          0.73230255	          0.74098039	         -0.27178642	          0.71423042	          0.73193228	         -0.20850877	          0.72616160	          0.74446082	         -0.33767074	          0.67411685	          0.39839298	         -0.16623087	          0.72595650	          0.42481664	         -0.32617399	          0.43697205	          0.14855444	         -0.15727523	          0.77745956	          0.07082654	         -0.30736613	          0.79011124	          0.80626953	         -0.26002842	          0.78079975	          0.79649186	         -0.15922625	          0.79942274	          0.81604725	         -0.36083058	          0.62881249	          0.84503704	         -0.24071948	          0.63230562	          0.84836292	         -0.29536057	          0.65898460	          0.40682951	         -0.11403085	          0.72949469	          0.42285955	         -0.38052377	          0.70133615	          0.38416246	         -0.20911373	          0.71998250	          0.39932549	         -0.29075822	          0.42549732	          0.16065021	         -0.12368545	          0.77294493	          0.06822345	         -0.34399727	          0.44438809	          0.15083919	         -0.18129694	          0.77749997	          0.06974442	         -0.27759868	          0.63922584	          1.21186519	         -0.26828432	          0.74510878	          1.15869343	         -0.21811824	          0.75476336	          1.16292202	         -0.29480970	          0.73562133	          1.15880930	         -0.25978434	          0.76845968	          1.07833445	         -0.25765988	          0.75776845	          0.52388412	         -0.04797087	          0.87692636	          0.54660219	         -0.32768065	          0.70061469	          0.57480329	         -0.10734154	          0.80987197	          0.60578388	         -0.36929253	          0.69866687	          0.48623061	         -0.11121205	          0.79839897	          0.51920170	         -0.36771226	          0.48200360	          0.26837090	         -0.05364250	          0.77603108	          0.19108221	         -0.42414230	          0.47281730	          0.22718696	         -0.12568057	          0.75998718	          0.15117958	         -0.35046002	          0.43979415	          0.04790013	         -0.14920294	          0.88170975	          0.03981842	         -0.31790641	
          0.31666663	          0.79413867	          0.80615282	         -0.26091641	         -1.88974380	          6.66864157	         -3.78178668	         -2.72897053	        -13.50445461	        -11.46006107	        -38.54362106	        -32.04184341	          0.00000000	          0.00000000	          2.02033043	          7.65450239	         -1.50095582	          8.63837433	         -7.61177778	          0.00000000	          0.00000000	         -4.76691723	         -2.07951140	         -2.38440418	          0.00000000	          0.00000000	          0.00000000	          1.14657385	          0.00000000	         -0.16800815	        -23.14271332	        396.20192244	         14.06084698	          0.77730536	          0.00000000	         -0.30850119	          0.00000000	          0.00000000	          0.00000000	          0.00000000	          0.60011694	          0.00000000	          0.73621130	          0.74080348	         -0.27330223	          0.71824783	          0.73178381	         -0.20945734	          0.73021650	          0.74437916	         -0.33860931	          0.68479645	          0.39778391	         -0.16535822	          0.72722447	          0.42500955	         -0.32707980	          0.44470298	          0.15190120	         -0.15631941	          0.77738088	          0.07086258	         -0.30754158	          0.79413867	          0.80615282	         -0.26091641	          0.78480089	          0.79632616	         -0.16015486	          0.80347639	          0.81597942	         -0.36167797	          0.63281620	          0.84480494	         -0.24177985	          0.63630587	          0.84838223	         -0.29632077	          0.67013735	          0.40616325	         -0.11301418	          0.73078322	          0.42301425	         -0.38142687	          0.71065217	          0.38305888	         -0.20836565	          0.71790057	          0.40214786	         -0.29123402	          0.43393725	          0.16366118	         -0.12237751	          0.77289677	          0.06820659	         -0.34417269	          0.45202866	          0.15392429	         -0.18026233	          0.77744293	          0.06993362	         -0.27777421	          0.64418936	          1.21198225	         -0.26951244	          0.74984771	          1.15862250	         -0.21914478	          0.75984859	          1.16295063	         -0.29591048	          0.74054545	          1.15880871	         -0.26091143	          0.77328479	          1.07829428	         -0.25875661	          0.76739198	          0.52430713	         -0.04857132	          0.87910646	          0.54575884	         -0.32851073	          0.70859814	          0.57405996	         -0.10742186	          0.81447136	          0.60524106	         -0.37074322	          0.70788407	          0.48558903	         -0.11087575	          0.80039203	          0.51895666	         -0.36855957	          0.49289405	          0.26920831	         -0.05172849	          0.77655447	          0.19082153	         -0.42462680	          0.48232988	          0.22923066	         -0.12433127	          0.76013279	          0.15120918	         -0.35100743	          0.44394672	          0.05041212	         -0.14860354	          0.88160944	          0.03974983	         -0.31799233	
          0.32499996	          0.79807067	          0.80600047	         -0.26171696	         -1.90846825	          6.70157528	         -3.77533937	         -1.52148151	        -13.66793633	        -10.50334835	        -40.47639847	        -33.05675507	          0.00000000	          0.00000000	          1.55063725	          7.73110867	         -1.42195141	          8.92799473	         -7.43505859	          0.00000000	          0.00000000	         -4.79858875	         -2.05658293	         -2.61060977	          0.00000000	          0.00000000	          0.00000000	          1.14974341	          0.00000000	         -0.16803299	        -20.60130013	        399.01016591	         14.24669638	          0.77594324	          0.00000000	         -0.30869406	          0.00000000	          0.00000000	          0.00000000	          0.00000000	          0.58917004	          0.00000000	          0.73994273	          0.74064863	         -0.27444753	          0.72215497	          0.73162526	         -0.21030360	          0.73413146	          0.74429238	         -0.33944786	          0.69542181	          0.39727396	         -0.16487108	          0.72841835	          0.42516091	         -0.32792431	          0.45266691	          0.15526092	         -0.15537655	          0.77730054	          0.07087880	         -0.30770287	          0.79807067	          0.80600047	         -0.26171696	          0.78873044	          0.79612172	         -0.16100059	          0.80741084	          0.81587929	         -0.36243331	          0.63659549	          0.84464025	         -0.24276502	          0.64021832	          0.84844035	         -0.29722396	          0.68137938	          0.40553486	         -0.11233948	          0.73199248	          0.42313460	         -0.38226923	          0.71704376	          0.38227686	         -0.20838200	          0.71827728	          0.40297785	         -0.29207563	          0.44263443	          0.16666920	         -0.12109172	          0.77284837	          0.06817371	         -0.34433430	          0.45984912	          0.15696721	         -0.17928453	          0.77741909	          0.07008753	         -0.27793339	          0.64911693	          1.21211278	         -0.27070877	          0.75475377	          1.15852380	         -0.22032590	          0.76502752	          1.16287172	         -0.29679585	          0.74559891	          1.15873981	         -0.26200205	          0.77822924	          1.07818317	         -0.25976798	          0.77734113	          0.52465266	         -0.04948324	          0.88117015	          0.54490048	         -0.32927889	          0.71679485	          0.57327533	         -0.10760964	          0.81756753	          0.60478109	         -0.37138501	          0.71615440	          0.48500377	         -0.11095279	          0.80237812	          0.51878357	         -0.36925915	          0.50400877	          0.27005494	         -0.04998977	          0.77704942	          0.19056575	         -0.42506811	          0.49187699	          0.23132306	         -0.12294631	          0.76028723	          0.15118736	         -0.35146850	          0.44856027	          0.05303385	         -0.14797474	          0.88151944	          0.03969573	         -0.31806254	
          0.33333328	          0.80196524	          0.80583036	         -0.26252031	         -1.94095230	          6.77811909	         -3.84863758	         -0.26399422	        -13.81631374	         -9.33959961	        -42.36427307	        -33.95170593	          0.00000000	          0.00000000	          1.09486294	          7.86385059	         -1.40727293	          9.23460293	         -7.24146414	          0.00000000	          0.00000000	         -5.06806231	         -2.35914922	         -1.34311402	          0.00000000	          0.00000000	          0.00000000	          1.15284937	          0.00000000	         -0.16798422	        -18.06133979	        401.26870193	         14.08653120	          0.77480652	          0.00000000	         -0.30882916	          0.00000000	          0.00000000	          0.00000000	          0.00000000	          0.58843652	          0.00000000	          0.74346673	          0.74045956	         -0.27532116	          0.72591639	          0.73145872	         -0.21129878	          0.73810279	          0.74424517	         -0.34041166	          0.70598060	          0.39680871	         -0.16474114	          0.72957313	          0.42531633	         -0.32871369	          0.46087784	          0.15855931	         -0.15443978	          0.77719659	          0.07087470	         -0.30785844	          0.80196524	          0.80583036	         -0.26252031	          0.79246223	          0.79585946	         -0.16183755	          0.81146818	          0.81580126	         -0.36320308	          0.64019912	          0.84453309	         -0.24366200	          0.64403921	          0.84852922	         -0.29806346	          0.69266015	          0.40493953	         -0.11200165	          0.73318297	          0.42322665	         -0.38305384	          0.71732116	          0.38201451	         -0.20901436	          0.72093379	          0.40194750	         -0.29326969	          0.45158753	          0.16961326	         -0.11983125	          0.77278024	          0.06812585	         -0.34449095	          0.46793681	          0.15988922	         -0.17830421	          0.77740747	          0.07018474	         -0.27807367	          0.65391362	          1.21222186	         -0.27186537	          0.75973135	          1.15834582	         -0.22149581	          0.76834035	          1.16253746	         -0.29782367	          0.74966598	          1.15853620	         -0.26279107	          0.78201777	          1.07785344	         -0.26114908	          0.78752321	          0.52496332	         -0.05067592	          0.88319725	          0.54406774	         -0.33000314	          0.72518742	          0.57245481	         -0.10791792	          0.81926399	          0.60475200	         -0.37138954	          0.72218406	          0.48467815	         -0.11139544	          0.80432308	          0.51856679	         -0.36988920	          0.51533061	          0.27091283	         -0.04843809	          0.77752435	          0.19031273	         -0.42547038	          0.50160336	          0.23326574	         -0.12160648	          0.76049531	          0.15112168	         -0.35175946	          0.45369947	          0.05572219	         -0.14736339	          0.88144362	          0.03965069	         -0.31811875	
